<?xml version="1.0" encoding="utf-8"?>
<!-- Svg Vector Icons : http://www.onlinewebfonts.com/icon -->
<!DOCTYPE svg PUBLIC "-//W3C//DTD SVG 1.1//EN" "http://www.w3.org/Graphics/SVG/1.1/DTD/svg11.dtd">
<svg version="1.1" xmlns="http://www.w3.org/2000/svg" xmlns:xlink="http://www.w3.org/1999/xlink" x="0px" y="0px" viewBox="0 0 1000 1000" enable-background="new 0 0 1000 1000" xml:space="preserve">
<metadata> Svg Vector Icons : http://www.onlinewebfonts.com/icon </metadata>
<g><path d="M990,875.3c0,7.8-3.6,18.3-10.8,31.4c-7.2,13.1-18.1,25.6-32.8,37.7c-14.7,12.1-32.8,22.7-54.4,31.9c-21.6,9.1-46.4,13.7-74.5,13.7H183.5c-28.7,0-53.9-4.6-75.5-13.7c-21.6-9.1-39.7-19.8-54.4-31.9c-14.7-12.1-25.6-24.7-32.8-37.7S10,883.2,10,875.3l86.2-461.6c0-16.3,5.7-30.1,17.2-41.2c11.4-11.1,25-16.7,40.7-16.7c4.6,1.3,9.8,2.9,15.7,4.9c5.2,1.3,11.4,2.9,18.6,4.9l23.5,6.9v-76.4c0-39.2,7.5-76.3,22.5-111.2c15-35,35.6-65.3,61.7-91.1s56.7-46.2,91.6-61.3S460.1,10,500,10c39.9,0,77.3,7.5,112.2,22.5s65.5,35.4,91.6,61.3c26.1,25.8,46.7,56.2,61.7,91.1s22.5,72,22.5,111.2v76.4l23.5-6.9c7.2-2,13.4-3.6,18.6-4.9c5.9-2,11.1-3.6,15.7-4.9c16.3,0,30.1,5.6,41.2,16.7c11.1,11.1,16.7,24.8,16.7,41.2L990,875.3z M240.3,557.8c16.3,0,30.1-5.6,41.2-16.7c11.1-11.1,16.7-24.8,16.7-41.2c0-11.1-2.6-20.9-7.8-29.4c-5.2-8.5-12.1-15.4-20.6-20.6v50h-57.8v-50c-18.9,10.5-28.4,27.1-28.4,50c0,16.3,5.6,30.1,16.7,41.2C211.2,552.3,224.6,557.8,240.3,557.8z M269.7,386.3c32,7.2,67.9,13.6,107.8,19.1c39.9,5.6,80.7,8.3,122.5,8.3c41.8,0,82.6-2.8,122.5-8.3c39.9-5.6,76.1-11.9,108.8-19.1V305c0-32.7-6-63.4-18.1-92.1c-12.1-28.7-28.6-53.9-49.5-75.5s-45.4-38.5-73.5-51C562.1,74,532,67.8,500,67.8c-32,0-61.9,6.2-89.7,18.6c-27.8,12.4-52.1,29.4-73,51c-20.9,21.6-37.4,46.7-49.5,75.5c-12.1,28.7-18.1,59.5-18.1,92.1V386.3L269.7,386.3z M759.7,557.8c16.3,0,30.1-5.6,41.2-16.7c11.1-11.1,16.7-24.8,16.7-41.2c0-11.1-2.6-20.9-7.8-29.4c-5.2-8.5-12.4-15.4-21.6-20.6v50h-56.8v-50c-9.1,5.2-16.3,12.1-21.6,20.6c-5.2,8.5-7.8,18.3-7.8,29.4c0,16.3,5.7,30.1,17.2,41.2C730.5,552.3,744,557.8,759.7,557.8L759.7,557.8z"/></g>
</svg>