<?xml version="1.0" encoding="utf-8"?>
<!-- Svg Vector Icons : http://www.onlinewebfonts.com/icon -->
<!DOCTYPE svg PUBLIC "-//W3C//DTD SVG 1.1//EN" "http://www.w3.org/Graphics/SVG/1.1/DTD/svg11.dtd">
<svg version="1.1" xmlns="http://www.w3.org/2000/svg" xmlns:xlink="http://www.w3.org/1999/xlink" x="0px" y="0px" viewBox="0 0 1000 1000" enable-background="new 0 0 1000 1000" xml:space="preserve">
<metadata> Svg Vector Icons : http://www.onlinewebfonts.com/icon </metadata>
<g><g><path d="M230.9,10l39.2,956.1h33V990h402.1v-23.9h34L769.1,10H230.9z M369,768.1c-2.5,76.5-8.4,127.8-8.4,127.8s-10.1-50.5-19-126.6c-4.7-38-9.1-82.4-12.8-130.1c-4-47.6-6.5-98.5-9.1-149.4c-1.6-50.9-3.4-101.8-3.3-149.6c-0.3-47.7,0.4-92.4,1.9-130.7c2.5-76.5,8.4-127.8,8.4-127.8s10.1,50.5,19,126.6c4.7,38,9.1,82.4,12.8,130.1c4,47.6,6.5,98.5,9.1,149.3c1.6,50.9,3.4,101.8,3.4,149.6C371.2,685.2,370.5,729.8,369,768.1z"/></g><g></g><g></g><g></g><g></g><g></g><g></g><g></g><g></g><g></g><g></g><g></g><g></g><g></g><g></g><g></g></g>
</svg>