<?xml version="1.0" encoding="utf-8"?>
<!-- Svg Vector Icons : http://www.onlinewebfonts.com/icon -->
<!DOCTYPE svg PUBLIC "-//W3C//DTD SVG 1.1//EN" "http://www.w3.org/Graphics/SVG/1.1/DTD/svg11.dtd">
<svg version="1.1" xmlns="http://www.w3.org/2000/svg" xmlns:xlink="http://www.w3.org/1999/xlink" x="0px" y="0px" viewBox="0 0 1000 1000" enable-background="new 0 0 1000 1000" xml:space="preserve">
<metadata> Svg Vector Icons : http://www.onlinewebfonts.com/icon </metadata>
<g><g transform="translate(0.000000,511.000000) scale(0.100000,-0.100000)"><path d="M3399.9,4988.4c-145.9-50.1-220-95.8-311.5-200.4c-111.1-126.3-156.8-259.2-156.8-453.1v-148.1l-625.1-1119.6c-592.5-1058.6-631.7-1119.6-688.3-1121.8c-82.8,0-307.1-78.4-407.3-141.6c-178.6-113.3-322.4-296.2-392.1-498.8l-37-111.1L620.6,1181c-244-19.6-398.6-113.3-479.2-289.7C106.5,812.9,100,743.2,100,279.2c0-298.4,10.9-557.6,24-605.5C171.9-500.6,357-633.4,590.1-659.6l119.8-15.3l41.4-143.8c95.8-320.2,721-2552.8,764.5-2724.9c159-631.7,594.6-1093.4,1143.5-1208.9c226.5-47.9,4521.9-47.9,4748.4,0c318,67.5,655.6,281,849.5,535.8c137.2,183,215.6,355.1,294.1,642.6c100.2,374.6,803.8,2825.1,825.5,2873c13.1,30.5,56.6,52.3,135,69.7c145.9,34.8,261.4,111.1,326.7,217.8c50.1,80.6,52.3,98,58.8,636c6.5,470.5,2.2,568.5-28.3,646.9c-69.7,185.1-235.2,289.7-485.7,311.5l-161.2,13.1l-52.3,139.4c-58.8,154.7-167.7,309.3-283.2,400.8c-111.1,89.3-335.4,189.5-457.4,202.6l-106.7,13.1l-620.8,1108.7L7081,4169.4L7068,4372c-13.1,224.4-58.8,331.1-198.2,464c-239.6,230.9-629.5,228.7-888.7-6.5c-143.8-128.5-204.8-270.1-204.8-466.1c0-230.9,87.1-389.9,304.9-566.3c45.8-37,270.1-413.8,705.7-1195.8l638.2-1139.2l-43.6-135l-45.7-132.9h-2335h-2335l-45.7,132.9l-43.6,132.9L3221.3,2612c590.3,1049.9,655.6,1156.6,749.3,1228.5c483.5,363.8,254.8,1115.2-357.2,1165.3C3537.1,5012.4,3452.2,5005.8,3399.9,4988.4z M8538.2,1337.8c196-122,257-400.8,132.9-601.2C8438,362,7854.3,525.3,7854.3,965.3C7854.3,1313.8,8237.6,1522.9,8538.2,1337.8z M1918.8,1350.9c45.7-26.1,115.4-91.5,152.5-141.6c56.6-82.8,65.3-113.3,65.3-244s-8.7-161.2-65.3-244c-102.4-143.8-209.1-193.9-383.4-187.3c-191.7,10.9-298.4,78.4-379,246.1c-50.1,98-56.6,139.4-47.9,217.8c34.9,248.3,202.6,403,437.8,403C1796.8,1401,1855.6,1387.9,1918.8,1350.9z M2748.7-1071.3c37-222.2,61-407.3,56.6-413.8c-6.5-6.5-298.4-10.9-646.9-10.9h-636l-113.3,398.6c-61,220-111.1,407.3-111.1,413.8c0,8.7,311.5,15.3,692.7,15.3h692.7L2748.7-1071.3z M4761.3-1082.1V-1496l-690.5,4.4l-690.5,6.5l-67.5,409.5l-69.7,407.3h760.2h758V-1082.1z M6776.1-1075.6l-67.5-409.5l-690.5-6.5l-690.5-4.4v413.9v413.8h758h760.2L6776.1-1075.6z M8790.9-683.6c0-8.7-50.1-193.8-113.3-413.8L8564.3-1496h-633.8c-350.7,0-640.4,4.4-646.9,10.9c-4.4,6.5,19.6,191.7,56.7,413.8l65.3,403h692.7C8479.4-668.3,8790.9-674.8,8790.9-683.6z M2920.7-2110.2c28.3-128.5,115.4-725.3,106.7-738.4c-4.4-8.7-259.2-15.3-564.1-15.3c-492.3,2.2-555.4,4.4-564.1,37c-41.4,132.9-209.1,734.1-209.1,747.1c0,10.9,274.4,17.4,609.9,17.4h609.9L2920.7-2110.2z M4761.3-2463.1v-400.8H4195c-311.5,0-572.9,8.7-579.4,19.6c-8.7,15.2-137.2,729.7-139.4,777.6c0,2.2,289.7,4.4,642.6,4.4h642.6V-2463.1z M6612.7-2066.7c-2.2-47.9-130.7-762.4-139.4-777.6c-6.5-10.9-265.7-19.6-579.4-19.6h-566.3v400.8v400.8h642.6C6323-2062.3,6612.7-2064.5,6612.7-2066.7z M8390.1-2099.4c-6.5-21.8-50.1-180.8-100.2-355c-47.9-174.2-98-337.6-106.7-361.6c-19.6-45.8-30.5-45.8-566.3-47.9c-300.6,0-551.1,6.5-557.6,17.4c-8.7,15.3,74.1,575,108.9,736.2l10.9,47.9h612.1C8361.8-2062.3,8401-2064.5,8390.1-2099.4z M3197.4-3772.2c32.7-191.7,58.8-372.5,58.8-400.8l2.2-50.1l-254.8,8.7c-222.2,6.5-274.4,15.2-383.3,65.3c-176.4,82.8-335.4,250.5-446.5,472.7c-143.8,287.5-180.8,265.7,437.8,259.2l527.1-6.5L3197.4-3772.2z M4761.3-3815.8v-403h-463.9h-466.1l-65.3,392.1c-34.8,215.6-58.8,396.4-54.5,403c6.5,6.5,246.1,10.9,531.5,10.9h518.4V-3815.8z M6373.1-3449.8c0-21.8-26.1-202.6-58.8-403l-56.6-365.9h-466.1h-463.9v387.7c0,213.4,6.5,396.4,15.3,403c6.5,8.7,241.8,15.2,522.8,15.2C6333.9-3412.8,6373.1-3415,6373.1-3449.8z M7989.3-3489c-10.9-115.4-137.2-344.2-259.2-463.9c-69.7-69.7-172.1-141.6-261.4-185.1c-132.9-63.2-172.1-69.7-392.1-76.2c-220-8.7-246.1-4.4-246.1,28.3c0,41.4,106.7,703.5,119.8,747.1c8.7,21.8,124.2,26.1,527.1,21.8l518.4-6.5L7989.3-3489z"/></g></g>
</svg>