<?xml version="1.0" encoding="utf-8"?>
<!-- Svg Vector Icons : http://www.onlinewebfonts.com/icon -->
<!DOCTYPE svg PUBLIC "-//W3C//DTD SVG 1.1//EN" "http://www.w3.org/Graphics/SVG/1.1/DTD/svg11.dtd">
<svg version="1.1" xmlns="http://www.w3.org/2000/svg" xmlns:xlink="http://www.w3.org/1999/xlink" x="0px" y="0px" viewBox="0 0 1000 1000" enable-background="new 0 0 1000 1000" xml:space="preserve">
<metadata> Svg Vector Icons : http://www.onlinewebfonts.com/icon </metadata>
<g><g transform="translate(0.000000,512.000000) scale(0.100000,-0.100000)"><path d="M3889,5009.6c-266.2-84.3-459.7-321.8-459.7-568.8v-120.7l-249-82.4l-249-80.4v-226v-226h-262.4h-264.3l-53.6,105.3c-101.5,191.5-296.9,337.1-503.7,375.4c-266.2,49.8-570.8-130.3-701-415.6c-63.2-139.8-61.3-344.8,7.7-490.3c101.5-218.3,316-381.1,542-407.9c256.7-32.6,551.6,147.5,668.4,409.9l36.4,78.5H2667h264.3v-226v-226l249-80.4l249-82.4v-191.5v-189.6h249h249v-247.1v-249l-438.6-5.8l-438.6-5.7l-82.4-57.5c-46-32.6-109.2-95.8-141.7-141.7c-55.5-78.5-57.5-88.1-67-352.4l-9.6-272l-57.5-5.7C1489.1,922.3,690.4-62.1,602.3-1548.4l-13.4-222.2l-74.7-53.6c-304.5-210.7-471.2-624.4-396.5-986.4c47.9-235.6,264.3-559.3,413.7-620.6c80.4-34.5,168.5-3.8,208.8,72.8c44,84.3,19.2,153.2-88.1,243.2c-172.4,145.6-256.7,400.3-210.7,628.2c46,214.5,157.1,367.7,348.6,469.2c72.8,38.3,109.2,44.1,302.6,44.1c201.1,0,227.9-3.8,316-51.7c128.3-67,226-174.3,289.2-312.2c44-95.8,53.6-141.7,53.6-277.7c1.9-147.5-3.8-176.2-61.3-293c-40.2-82.4-93.9-153.2-147.5-199.2c-47.9-38.3-93.8-93.8-103.4-124.5c-28.7-82.4,7.7-166.6,86.2-199.2c90-38.3,162.8-3.8,285.4,130.2c300.7,327.5,360.1,754.6,157.1,1131.9c-70.9,134.1-214.5,298.8-314.1,360.1l-68.9,42.1l13.4,212.6c46,760.4,281.6,1248.8,702.9,1455.6c141.7,68.9,331.3,126.4,413.7,126.4h44v-655c0-624.4,1.9-658.9,40.2-737.4c44-90,172.4-210.7,241.3-227.9c42.1-11.5,44-21.1,44-182v-170.5h-162.8c-191.5,0-289.2-32.6-316-105.3c-11.5-28.7-19.2-247.1-19.2-498v-446.3l49.8-59.4c49.8-59.4,49.8-59.4,249-59.4h199.2v-247.1v-245.2l-147.5-9.6c-178.1-11.5-272-53.6-383.1-172.4c-105.3-114.9-130.2-197.3-128.3-427.1c0-214.5,30.6-298.8,149.4-417.5c139.8-141.7,109.2-137.9,1109-143.6l894.5-5.7l1.9,427.1c0,235.6,0,946.1-1.9,1582l-1.9,1153h425.2h423.3l-3.8-1153c-1.9-635.9-3.8-1346.5-1.9-1582l1.9-427.1l896.4,5.7c997.9,5.7,957.7,1.9,1107,143.6c113,113,141.7,195.4,141.7,432.9c0,235.6-17.2,295-126.4,415.6c-103.4,114.9-199.2,157.1-375.4,168.5l-149.4,9.6v245.2v247.1h199.2c199.2,0,199.2,0,249,59.4l49.8,59.4v448.2c0,499.9-7.7,542-116.8,580.3c-34.5,11.5-134.1,21.1-220.3,21.1h-160.9v170.5c0,160.9,1.9,170.4,44,182c69,17.2,197.3,137.9,241.3,227.9c38.3,78.5,40.2,113,40.2,737.4v655h44c82.4,0,272-57.5,413.7-126.4c164.7-80.4,339-247.1,440.5-415.6c141.7-239.4,233.7-612.9,262.4-1043.8l13.4-208.8l-68.9-42.1c-38.3-23-113-90-166.6-149.4c-356.2-390.7-354.3-944.2,3.8-1336.9c151.3-166.6,256.6-193.4,342.8-93.9c76.6,90,57.5,168.6-68.9,279.6c-51.7,46-109.2,124.5-147.5,203c-55.5,111.1-63.2,145.6-63.2,281.6c0,199.2,44,323.7,157.1,450.1c132.1,147.5,243.2,197.3,465.4,206.9c151.3,5.8,199.2,0,289.2-32.5c216.4-82.4,358.2-260.5,400.3-503.7c40.2-233.7-24.9-429-203-599.5c-55.5-53.6-107.3-120.7-113-147.5c-17.2-70.9,34.5-160.9,107.2-185.8c84.3-28.7,160.9,7.7,281.6,139.8c124.5,136,224.1,342.8,256.6,524.8c57.5,335.2-90,702.9-373.5,925.1l-99.6,78.5l-23,281.6c-65.1,781.4-291.1,1379-685.7,1819.5c-342.8,383.1-771.9,611-1279.4,678l-176.2,24.9l-9.6,270c-9.6,264.3-11.5,273.9-67,352.4c-32.6,46-95.8,109.2-141.7,141.7l-82.4,57.5l-438.6,5.7l-438.6,5.8v249v247.1h249h249v189.6v191.5l249,82.4l249,80.4v226v226h264.3h266.2l36.4-78.5c116.8-262.4,411.8-442.5,668.5-409.9c226,26.8,440.5,189.6,542,407.9c130.2,279.6,19.2,626.3-258.6,804.4c-264.3,168.6-553.5,137.9-791-84.3c-51.7-47.9-116.8-132.2-147.5-189.6l-53.6-105.3h-262.4h-264.3v226v226l-249,80.4l-249,82.4v120.7c0,208.8-134.1,409.9-348.6,522.9l-101.5,53.6l-1091.7,3.8C4429.1,5023,3915.8,5017.2,3889,5009.6z M6089.7,4676.3c36.4-13.4,84.3-47.9,105.3-76.6c40.2-53.6,40.2-74.7,46-973l5.7-917.4H4999.9h-1245v890.6c0,930.8,3.8,974.9,84.3,1041.9c17.2,13.4,59.4,32.6,93.8,40.2C4040.3,4708.9,6015,4703.2,6089.7,4676.3z M3410.2,3532.9c0-231.7-7.7-421.4-17.2-421.4c-7.7,0-42.1,9.6-76.6,21.1l-59.4,21.1v379.2v379.2l53.6,19.2C3414,3969.6,3410.2,3984.9,3410.2,3532.9z M6683.4,3933.2l59.4-21.1v-379.2v-379.2l-59.4-21.1c-34.5-11.5-69-21.1-76.6-21.1c-9.6,0-17.2,189.6-17.2,421.4c0,231.8,7.7,421.4,17.2,421.4C6614.5,3954.3,6648.9,3944.7,6683.4,3933.2z M1933.5,3820.2c201.1-101.5,203-473.1,1.9-578.4c-91.9-47.9-275.8-46-358.2,3.8c-206.8,124.5-199.2,473.1,13.4,578.4C1680.6,3870,1841.5,3868.1,1933.5,3820.2z M8441.7,3808.7c86.2-65.1,124.5-149.4,126.4-273.9c0-132.2-42.1-218.3-139.8-283.5c-82.4-57.5-266.2-61.3-363.9-7.7c-199.2,105.3-203,469.2-5.7,574.6C8156.3,3871.9,8363.1,3866.2,8441.7,3808.7z M5746.8,2115.6v-249h-747h-747v249v249h747h747V2115.6z M6892.2,1518c17.2-17.2,23-354.3,23-1398.2c0-1338.8,0-1375.2-36.4-1394.3c-51.7-26.8-3706.1-26.8-3757.8,0c-36.4,19.2-36.4,55.6-36.4,1394.3c0,1043.8,5.7,1380.9,23,1398.2C3140.1,1550.5,6859.6,1550.5,6892.2,1518z M2758.9,537.4c0-170.5-7.7-183.9-101.5-183.9c-88.1,0-300.7-65.1-463.5-143.6c-521-249-848.5-842.7-919.3-1672.1l-15.3-157.1h-162.8H933.7l13.4,206.9c21.1,363.9,136,810.2,283.5,1105.1c270,538.2,710.6,873.4,1285.2,976.8c76.6,13.4,160.9,26.8,191.5,26.8l51.7,1.9V537.4z M7618.1,638.9c314.1-78.5,574.6-227.9,796.8-452c268.1-272,432.9-586.1,549.7-1040c47.9-189.6,95.8-509.5,95.8-655v-111.1h-159h-159l-23,216.4c-90,838.9-415.6,1392.4-969.2,1641.4c-118.7,53.6-337.1,114.9-408,114.9c-93.8,0-101.5,13.4-101.5,185.8v162.8l120.7-13.4C7426.6,681,7543.4,658,7618.1,638.9z M4252.9-2615.2v-996h-411.8h-411.8v249v249h249h249l-3.8,580.3l-5.7,578.4l-243.3,5.7l-245.2,5.8v160.9v162.8h411.8h411.8V-2615.2z M6570.4-1782.1V-1943l-243.3-5.8l-245.1-5.7l-5.7-578.4l-3.8-580.3h249h249v-249v-249h-411.8h-411.8v996v996h411.8h411.8V-1782.1z M3582.5-2538.6v-249h-325.6h-325.6v249v249h325.6h325.6V-2538.6z M7068.4-2538.6v-249h-325.6h-325.6v249v249h325.6h325.6V-2538.6z M4252.9-4205v-250.9l-720.2,5.7c-687.6,5.7-720.2,7.7-747,42.1c-40.2,55.5-38.3,381.1,3.8,421.4c24.9,26.8,120.7,30.6,747,30.6h716.3V-4205z M7210.1-3986.6c42.1-40.2,44.1-365.8,3.8-421.4c-26.8-34.5-59.4-36.4-747-42.1l-720.1-5.7v250.9v249h716.3C7089.5-3956,7185.2-3959.8,7210.1-3986.6z"/><path d="M4300.8,4308.6c-107.3-105.3-23-277.7,136-277.7c70.9,0,141.7,80.4,141.7,162.8C4578.5,4339.2,4402.3,4412,4300.8,4308.6z"/><path d="M5469.1,4308.6c-95.8-93.8-32.6-277.7,93.9-277.7c159,0,243.2,172.4,136,277.7C5635.7,4373.7,5532.3,4373.7,5469.1,4308.6z"/><path d="M4373.6,3691.9c-24.9-3.8-61.3-30.6-84.3-59.4c-90-113,0-409.9,170.5-561.2c453.9-404.1,1231.6-162.8,1281.3,398.4c9.6,99.6,5.7,118.8-36.4,166.6c-32.5,40.2-63.2,53.6-116.8,55.5c-99.6,1.9-159-57.5-172.4-180c-26.8-216.4-145.6-304.5-415.6-304.5c-174.3,0-283.5,34.5-350.5,109.2c-17.2,21.1-46,97.7-61.3,168.5C4553.6,3655.5,4492.3,3712.9,4373.6,3691.9z"/><path d="M3917.7,1018.1c-218.3-55.6-404.1-191.5-528.6-381.2c-204.9-319.8-164.7-704.8,107.3-990.2c308.4-321.8,752.7-356.3,1091.7-84.3c362,295,429,762.3,160.9,1120.4C4549.8,951.1,4201.2,1090.9,3917.7,1018.1z M4360.2,631.2c143.6-90,204.9-203,214.5-398.4c5.8-143.7,1.9-166.6-47.9-262.4c-68.9-134.1-180-220.3-323.7-249c-222.2-46-448.2,46-545.9,220.3c-118.7,210.7-86.2,465.4,76.6,622.5c111.1,109.2,182,132.2,377.3,128.3C4245.2,688.7,4277.8,681,4360.2,631.2z"/><path d="M5480.6,995.1c-78.5-67-84.3-172.4-9.6-241.3l49.8-46h565h565l46,53.6c59.4,69,59.4,149.4,0,218.3l-46,53.6l-555.4,5.7l-553.5,5.8L5480.6,995.1z"/><path d="M5469.1,324.7c-32.6-30.6-47.9-67-47.9-114.9c0-47.9,15.3-84.3,47.9-114.9l46-47.9H6082h566.9l46,47.9c76.6,74.7,53.6,212.6-42.1,256.7c-30.6,13.4-231.7,21.1-591.8,21.1h-545.9L5469.1,324.7z"/><path d="M5329.3-311.1c-32.6-11.5-80.4-109.2-80.4-159c0-23,24.9-67,55.6-97.7l55.5-55.5h624.4c415.6,0,637.8,7.7,668.4,21.1c95.8,44.1,118.8,182,42.1,256.6l-46,47.9l-647.4-1.9C5645.3-299.6,5342.7-305.4,5329.3-311.1z"/></g></g>
</svg>