<?xml version="1.0" encoding="utf-8"?>
<!-- Svg Vector Icons : http://www.onlinewebfonts.com/icon -->
<!DOCTYPE svg PUBLIC "-//W3C//DTD SVG 1.1//EN" "http://www.w3.org/Graphics/SVG/1.1/DTD/svg11.dtd">
<svg version="1.1" xmlns="http://www.w3.org/2000/svg" xmlns:xlink="http://www.w3.org/1999/xlink" x="0px" y="0px" viewBox="0 0 1000 1000" enable-background="new 0 0 1000 1000" xml:space="preserve">
<metadata> Svg Vector Icons : http://www.onlinewebfonts.com/icon </metadata>
<g><g transform="translate(0.000000,512.000000) scale(0.100000,-0.100000)"><path d="M4425.2,4373c-543.6-543.6-646.9-654.6-646.9-700.5c0-38.3,30.6-84.2,114.8-172.3l112.9-118.7L2744.7,2120.2L1481.4,856.9L1357,855c-296.7-3.8-566.6-250.7-597.2-549.3c-30.6-289,199.1-581.9,505.3-645l105.3-23l424.9-643.1c235.4-356,639.3-966.6,897.7-1359l472.8-713.9l-88-51.7C2693-3355.9,2216.4-3801.9,1981-4156c-145.5-220.1-269.9-449.8-269.9-499.6c0-17.2,21.1-51.7,47.9-76.6l45.9-47.9h2978.3c2063.3,0,2989.8,5.7,3016.6,21c61.2,32.5,78.5,103.4,46,183.8c-93.8,223.9-363.7,606.8-601,853.7c-595.3,618.2-1343.7,976.2-2201.2,1048.9c-290.9,26.8-624,3.8-949.4-61.2c-112.9-23-206.7-38.3-210.5-34.5c-1.9,3.8-440.2,648.9-970.4,1433.6l-964.7,1426l7.7,95.7l7.7,95.7L3248.1,1569l1284.3,1286.2l51.7-47.8c51.7-49.8,51.7-53.6,42.1-218.2c-13.4-202.9,32.5-380.9,137.8-534c44-63.2,212.5-467,488.1-1173.3c407.7-1045.1,423-1079.5,505.3-1156.1c214.4-197.2,599.1-231.6,895.8-82.3c45.9,23,191.4,147.4,323.5,279.5l241.2,237.3l122.5-67c350.3-189.5,712-179.9,1043.2,28.7c470.9,298.6,618.3,913,329.2,1383.9l-55.5,93.8l229.7,231.6c185.6,187.6,243.1,258.4,292.8,365.6c59.3,128.2,63.2,145.5,63.2,354.1c0,210.5-3.8,227.8-61.3,344.5c-32.5,68.9-89.9,151.2-124.4,183.8c-49.7,45.9-296.7,151.2-1125.4,474.7C7254.2,3818,6829.3,3996,6754.7,4041.9c-193.3,124.4-390.5,168.4-597.2,135.9l-130.1-21.1l-411.5,413.4c-225.9,227.8-424.9,421.1-440.2,430.7c-15.3,9.6-45.9,19.1-67,19.1C5083.7,5020,4842.5,4792.2,4425.2,4373z M5481.8,4336.7l354.1-359.8l-511.1-507.2l-513-509.1l-357.9,359.8l-359.8,359.8l367.5,367.5l369.4,369.4l208.6-208.6c210.5-210.5,250.8-231.6,296.7-160.8c17.2,28.7-11.5,67-195.2,250.7l-214.4,214.4l90,91.9c49.7,49.8,95.7,90,101.5,90C5123.9,4694.6,5286.6,4533.8,5481.8,4336.7z M6172.8,3768.2c-166.5-168.4-191.4-225.9-97.6-237.3c38.3-3.8,84.2,32.5,229.7,178c99.5,99.5,187.6,181.8,197.1,181.8c7.7,0,68.9-36.4,134-80.4c65.1-45.9,122.5-84.2,128.3-88c3.8-1.9-252.7-266.1-572.3-585.7c-419.2-421.1-578-589.5-572.3-616.3c19.2-99.5,74.7-51.7,675.7,547.4c654.6,654.6,597.2,614.4,765.6,543.6l72.7-30.6l-336.9-336.9c-187.6-187.6-338.8-352.2-338.8-369.4c0-32.5,36.3-74.6,65.1-74.6c9.6,0,183.8,164.6,384.7,363.7l365.6,365.6l761.8-298.6c419.1-162.7,784.8-310.1,813.5-323.5c65-34.5,147.4-185.7,164.6-302.4c19.1-124.4-30.6-285.2-109.1-354.1C8735.7,2099.1,6622.6-12.1,6590-63.7c-49.8-82.3-193.3-141.7-336.9-141.7c-126.3,0-294.8,68.9-340.7,141.7c-13.4,21-212.5,518.7-440.2,1102.5c-254.6,650.8-436.4,1087.2-469,1129.3c-128.2,162.7-157,298.6-105.3,488.1c17.2,68.9,28.7,143.6,23,166.5c-9.6,36.4,70.8,124.4,499.6,553.2c444.1,446,516.8,511,558.9,503.4c26.8-5.7,82.3,3.8,124.4,19.1c42.1,15.3,111,28.7,153.1,28.7l76.6,1.9L6172.8,3768.2z M4275.9,3115.5l65.1-68.9L3104.5,1812L1870,575.5l-68.9,72.7l-68.9,74.6L2961,1953.7c675.7,675.7,1232.7,1228.8,1240.3,1228.8C4207,3182.5,4239.6,3151.9,4275.9,3115.5z M8475.4,1396.7c164.6-250.7,168.4-587.6,7.6-840.3c-76.6-120.6-170.3-201-321.5-271.8c-112.9-53.6-141.7-59.3-315.8-59.3c-178,0-201,3.8-315.8,61.3c-68.9,34.5-149.3,88-181.8,120.6l-55.5,59.3l534,534c403.8,403.9,539.7,530.2,558.9,514.9C8398.8,1503.9,8439,1450.3,8475.4,1396.7z M1483.3,577.5c137.8-47.9,214.4-162.7,214.4-323.5c0-191.4-103.4-313.9-283.3-335c-139.7-19.1-258.4,24.9-331.1,120.6c-45.9,59.3-51.7,84.2-51.7,212.5c0,122.5,7.7,155,45.9,210.5C1159.8,577.5,1334,627.2,1483.3,577.5z M2719.8-1516.5c497.7-735,899.6-1343.7,891.9-1351.3c-9.6-7.7-59.3-32.5-112.9-53.6l-97.6-38.3l-882.4,1334.1L1636.5-291.5l70.8,61.3c38.3,34.4,78.5,59.3,90,55.5C1806.8-176.7,2222.2-781.5,2719.8-1516.5z M5156.4-2944.4c662.3-82.3,1278.6-359.9,1724.6-777.1l156.9-149.3l-170.3-9.6l-170.4-9.6v-57.4v-57.4l239.3-5.7l239.2-5.7l72.7-93.8c38.3-49.8,70.9-97.6,70.9-103.4c0-5.7-235.4-13.4-520.7-15.3l-522.5-5.7l-5.8-45.9c-3.8-24.9,3.8-53.6,19.1-61.2c13.4-9.6,275.6-17.2,581.9-17.2h555.1l44-76.6l42.1-76.6h-2718c-1496.8,0-2719.9,7.7-2719.9,15.3c0,23,218.2,338.8,308.2,446l78.5,93.8h1496.8c1604,0,1582.9-1.9,1554.2,91.9L5499-3823l-1456.6,3.8l-1454.7,5.7l139.7,120.6l139.7,118.7h595.3c629.7,0,673.7,5.7,656.5,88c-5.7,34.5-30.6,36.4-528.3,45.9l-522.5,9.6l101.5,61.3c327.3,197.1,800.1,365.6,1171.4,415.4C4580.3-2921.4,4942-2917.6,5156.4-2944.4z"/></g></g>
</svg>